<?xml version="1.0" encoding="UTF-8"?>
<!DOCTYPE svg PUBLIC "-//W3C//DTD SVG 1.1//EN" "http://www.w3.org/Graphics/SVG/1.1/DTD/svg11.dtd">
<!-- Creator: CorelDRAW X8 -->
<svg xmlns="http://www.w3.org/2000/svg" xml:space="preserve" width="100%" height="100%" version="1.1" style="shape-rendering:geometricPrecision; text-rendering:geometricPrecision; image-rendering:optimizeQuality; fill-rule:evenodd; clip-rule:evenodd"
viewBox="0 0 2639 2974"
 xmlns:xlink="http://www.w3.org/1999/xlink">
 <defs>
  <style type="text/css">
   <![CDATA[
    .fil0 {fill:#FFFFFF;fill-rule:nonzero}
   ]]>
  </style>
 </defs>
 <g id="Слой_x0020_1">
  <metadata id="CorelCorpID_0Corel-Layer"/>
  <path class="fil0" d="M0 34l40 15 0 1159 -40 15 0 18 205 0 0 -18 -38 -15 0 -1162 111 0c0,38 -3,84 -9,137 -7,53 -11,90 -11,111 0,44 10,77 29,99 17,20 37,30 60,30 37,-2 61,-13 72,-35 13,-20 20,-41 20,-62 0,-19 -6,-37 -17,-52 -12,-12 -29,-18 -50,-18 -41,2 -63,24 -64,66 0,41 19,63 57,64l0 14c-16,1 -33,-5 -50,-18 -19,-15 -28,-39 -28,-72 -1,-63 10,-112 35,-148 22,-36 63,-81 121,-135l-9 -20 -28 9 -406 0 0 18zm937 593c0,-58 -11,-133 -33,-222l-68 -271c-9,-35 -14,-62 -14,-81 -2,-20 5,-32 20,-35l0 -18c-55,6 -103,27 -143,63 -43,38 -77,87 -102,146 -51,125 -77,261 -77,408 0,77 13,165 38,262l68 271c6,25 9,46 9,61 0,24 -7,36 -20,38l0 16c66,-15 119,-44 160,-87 42,-41 75,-91 99,-150 44,-128 65,-261 63,-401zm-214 -543c-8,25 -12,55 -12,92 0,27 3,52 7,76l99 425c11,51 17,123 19,214 0,51 -8,104 -24,158 -16,55 -43,99 -80,132 9,-25 14,-53 14,-83 0,-28 -7,-74 -21,-137l-80 -340c-16,-78 -24,-158 -24,-239 0,-126 34,-225 102,-298zm442 584c6,27 36,42 90,45 31,0 59,-11 85,-32 26,-22 39,-55 41,-99 0,-24 -7,-45 -18,-62 -15,-16 -33,-24 -54,-24 -45,2 -68,24 -68,66 0,22 6,38 20,47 12,13 26,20 42,20 23,0 36,-10 39,-31l8 2c-9,54 -42,82 -98,83 -55,-1 -84,-45 -87,-130 0,-41 12,-75 36,-104 20,-28 43,-49 70,-63 18,-10 34,-18 50,-24 16,-5 31,-12 44,-21 14,-12 26,-26 36,-45 8,-19 12,-44 12,-76l0 -56c-3,-102 -64,-153 -184,-155 -129,3 -192,58 -191,165l0 1034 -40 15 0 18 209 0 0 -18 -42 -15 0 -540zm0 -221l0 -330c0,-37 7,-59 22,-68 12,-7 23,-10 35,-10 14,0 28,3 42,10 13,9 20,31 22,68l0 155c0,21 -5,38 -12,52 -9,14 -19,28 -33,40 -13,12 -26,24 -39,36 -15,12 -27,28 -37,47zm771 180c0,-58 -11,-133 -34,-222l-68 -271c-9,-35 -14,-62 -14,-81 -1,-20 5,-32 21,-35l0 -18c-56,6 -104,27 -144,63 -43,38 -76,87 -101,146 -52,125 -77,261 -77,408 0,77 12,165 38,262l67 271c7,25 10,46 10,61 0,24 -7,36 -21,38l0 16c66,-15 119,-44 160,-87 42,-41 75,-91 99,-150 44,-128 65,-261 64,-401zm-215 -543c-8,25 -12,55 -12,92 0,27 3,52 7,76l99 425c11,51 18,123 19,214 0,51 -8,104 -24,158 -16,55 -43,99 -80,132 10,-25 14,-53 14,-83 0,-28 -7,-74 -21,-137l-80 -340c-16,-78 -24,-158 -24,-239 0,-126 34,-225 102,-298zm907 1115c-16,8 -26,12 -29,12l-94 0 0 -1162 40 -11 0 -22 -167 0 0 33c-19,-17 -36,-29 -52,-35 -17,-3 -39,-5 -66,-5 -29,0 -55,10 -81,31 -30,20 -45,53 -45,101 0,22 6,40 19,57 12,18 27,27 44,27 43,0 65,-22 67,-66 -2,-44 -21,-66 -58,-66 -23,2 -37,12 -40,31l-7 -3c13,-53 48,-80 107,-82 32,0 59,9 82,26 20,19 30,42 30,69 -1,69 -15,126 -40,172 -27,46 -57,92 -91,137 -36,42 -66,94 -93,155 -29,62 -44,143 -44,246l0 367 -96 0c-6,0 -16,-4 -28,-12l-9 22 16 20c45,56 75,99 90,131 15,31 22,72 22,122l29 0 0 -253 338 0 0 253 33 0c-1,-63 6,-111 20,-142 13,-30 43,-67 90,-111l24 -20 -11 -22zm-392 12l0 -386c4,-150 37,-287 98,-411l44 -95 0 0 0 892 -142 0zm-1428 943c-1,-77 -15,-169 -41,-276l-90 -363c-11,-34 -16,-67 -16,-99 0,-25 8,-39 25,-42l0 -23c-145,36 -249,131 -311,284 -63,155 -93,333 -91,535 0,65 12,145 36,243l102 413c9,36 13,62 13,77 0,13 -2,23 -7,31 -4,9 -11,15 -20,16l0 24c73,-16 136,-49 188,-101 50,-51 91,-114 123,-191 60,-162 89,-338 89,-528zm-267 -695c-11,33 -16,72 -16,117 0,18 1,35 4,50 2,17 5,39 9,67l110 482c19,118 29,218 29,299 0,73 -9,145 -27,215 -20,72 -53,131 -97,176 11,-27 16,-63 16,-106 0,-50 -9,-108 -26,-176l-96 -434c-20,-88 -31,-187 -32,-297 0,-75 10,-147 29,-217 19,-68 51,-126 97,-176zm522 911c6,27 36,42 90,46 31,0 59,-11 85,-33 26,-22 39,-55 41,-99 0,-24 -7,-44 -18,-62 -15,-15 -33,-23 -54,-23 -45,1 -68,23 -68,66 0,22 6,37 19,47 13,13 27,20 43,20 23,0 36,-11 39,-32l8 2c-9,54 -42,82 -99,83 -54,-1 -83,-44 -86,-130 0,-40 12,-75 35,-103 20,-29 44,-50 71,-64 18,-9 34,-18 50,-24 16,-4 31,-11 44,-20 14,-12 26,-27 36,-46 8,-19 12,-44 12,-75l0 -57c-3,-102 -65,-153 -184,-155 -129,4 -192,58 -191,165l0 1034 -40 15 0 19 209 0 0 -19 -42 -15 0 -540zm0 -221l0 -330c0,-36 7,-59 22,-68 11,-6 23,-9 35,-9 14,0 28,3 42,9 13,9 20,32 22,68l0 156c0,20 -5,38 -13,51 -8,15 -18,28 -32,40 -13,12 -26,24 -39,36 -15,12 -28,28 -37,47zm603 183l-7 23 24 16 0 346 0 0c-15,-20 -29,-38 -43,-54 -14,-15 -27,-33 -38,-54 -11,-20 -20,-47 -28,-82 -8,-33 -12,-77 -12,-132l0 -220c6,-25 15,-42 26,-52 11,-6 23,-9 38,-9 34,0 53,25 57,76l-22 12 0 16 169 0 0 -16 -20 -12 0 -24c0,-39 -12,-71 -37,-95 -23,-24 -53,-36 -90,-36 -69,2 -110,31 -121,84l0 0 0 -276c0,-27 4,-50 12,-71 7,-20 22,-30 47,-30 30,0 48,11 54,32 5,24 8,59 8,106l0 45 -22 10 0 16 169 0 0 -16 -20 -10 0 -49c0,-49 -13,-88 -40,-120 -30,-30 -77,-45 -144,-45 -70,0 -119,17 -149,50 -30,33 -43,78 -42,137l0 494c0,73 18,131 54,176 35,49 77,95 128,135 23,19 39,37 47,52 6,16 9,35 9,56 -2,73 -33,110 -95,112 -27,0 -52,-9 -75,-27 -10,-9 -19,-19 -26,-31 -7,-9 -11,-19 -14,-30l4 0c4,17 17,26 39,28 36,0 55,-22 56,-66 -1,-40 -23,-61 -65,-63 -17,0 -31,8 -43,23 -13,18 -19,38 -19,61 0,45 17,78 51,99 30,24 63,36 100,36 83,-1 141,-25 175,-70 32,-45 49,-100 49,-166l0 -346 22 -19 -9 -20 -157 0zm-129 -778c-38,1 -58,21 -59,58 1,38 21,58 59,59 37,-1 57,-21 59,-59 -2,-37 -21,-57 -58,-58l-1 0zm172 0c-37,1 -56,21 -57,58 1,38 20,58 57,59 36,-1 55,-21 56,-59 -1,-37 -20,-57 -56,-58zm494 164l0 48 0 0c-29,-37 -69,-55 -123,-55 -29,0 -55,11 -80,31 -30,20 -45,54 -45,101 0,22 6,40 18,57 12,18 27,27 44,27 42,-1 64,-22 66,-63 -2,-44 -21,-66 -57,-66 -24,2 -37,11 -40,28l-6 -2c13,-53 48,-81 106,-82 33,0 61,10 83,30 23,22 34,47 34,76 -2,69 -15,126 -40,171 -27,48 -58,93 -92,137 -34,42 -65,94 -92,156 -30,61 -45,143 -45,245l0 353 -40 15 0 19 193 0 0 -19 -26 -15 0 -374c3,-150 36,-287 98,-411l44 -94 0 0 0 879 -27 15 0 19 193 0 0 -19 -39 -15 0 -1158 39 -15 0 -19 -166 0z"/>
 </g>
</svg>
