<?xml version="1.0" encoding="UTF-8"?>
<!DOCTYPE svg PUBLIC "-//W3C//DTD SVG 1.1//EN" "http://www.w3.org/Graphics/SVG/1.1/DTD/svg11.dtd">
<!-- Creator: CorelDRAW X8 -->
<svg xmlns="http://www.w3.org/2000/svg" xml:space="preserve" width="100%" height="100%" version="1.1" style="shape-rendering:geometricPrecision; text-rendering:geometricPrecision; image-rendering:optimizeQuality; fill-rule:evenodd; clip-rule:evenodd"
viewBox="0 0 27093 17603"
 xmlns:xlink="http://www.w3.org/1999/xlink">
 <defs>
  <style type="text/css">
   <![CDATA[
    .str0 {stroke:#FFED00;stroke-width:86.64;stroke-opacity:0.701961}
    .fil0 {fill:none}
    .fil1 {fill:#FFED00;fill-opacity:0.701961}
   ]]>
  </style>
 </defs>
 <g id="Слой_x0020_1">
  <metadata id="CorelCorpID_0Corel-Layer"/>
  <g id="_2014780496">
   <path class="fil0 str0" d="M21776 43c386,0 700,313 700,699 0,386 -314,699 -700,699 -385,0 -699,-313 -699,-699 0,-386 314,-699 699,-699"/>
   <path class="fil1" d="M21776 198c300,0 544,244 544,544 0,300 -244,544 -544,544 -300,0 -544,-244 -544,-544 0,-300 244,-544 544,-544z"/>
   <path class="fil0 str0" d="M10564 15101c386,0 698,313 698,699 0,386 -312,699 -698,699 -387,0 -699,-313 -699,-699 0,-386 312,-699 699,-699"/>
   <path class="fil1" d="M10564 15256c300,0 543,244 543,544 0,300 -243,543 -543,543 -301,0 -544,-243 -544,-543 0,-300 243,-544 544,-544z"/>
   <path class="fil0 str0" d="M13083 10467c386,0 700,312 700,698 0,387 -314,699 -700,699 -385,0 -699,-312 -699,-699 0,-386 314,-698 699,-698"/>
   <path class="fil1" d="M13083 10622c300,0 544,243 544,543 0,300 -244,544 -544,544 -300,0 -544,-244 -544,-544 0,-300 244,-543 544,-543z"/>
   <path class="fil0 str0" d="M742 5110c386,0 699,314 699,700 0,385 -313,699 -699,699 -386,0 -699,-314 -699,-699 0,-386 313,-700 699,-700"/>
   <path class="fil1" d="M742 5267c300,0 544,242 544,543 0,300 -244,544 -544,544 -300,0 -544,-244 -544,-544 0,-301 244,-543 544,-543z"/>
   <path class="fil0 str0" d="M19581 11144c386,0 700,314 700,699 0,386 -314,700 -700,700 -385,0 -699,-314 -699,-700 0,-385 314,-699 699,-699"/>
   <path class="fil1" d="M19581 11299c301,0 544,244 544,544 0,300 -243,544 -544,544 -300,0 -544,-244 -544,-544 0,-300 244,-544 544,-544z"/>
   <path class="fil0 str0" d="M24831 10874c387,0 699,312 699,698 0,387 -312,699 -699,699 -386,0 -698,-312 -698,-699 0,-386 312,-698 698,-698"/>
   <path class="fil1" d="M24831 11029c300,0 544,243 544,543 0,300 -244,544 -544,544 -300,0 -543,-244 -543,-544 0,-300 243,-543 543,-543z"/>
   <path class="fil0 str0" d="M19376 14763c386,0 699,313 699,700 0,385 -313,698 -699,698 -386,0 -699,-313 -699,-698 0,-387 313,-700 699,-700"/>
   <path class="fil1" d="M19376 14919c300,0 543,243 543,544 0,300 -243,543 -543,543 -300,0 -544,-243 -544,-543 0,-301 244,-544 544,-544z"/>
   <path class="fil0 str0" d="M26351 16161c385,0 698,313 698,700 0,385 -313,698 -698,698 -387,0 -700,-313 -700,-698 0,-387 313,-700 700,-700"/>
   <path class="fil1" d="M26351 16317c300,0 543,243 543,544 0,300 -243,543 -543,543 -300,0 -544,-243 -544,-543 0,-301 244,-544 544,-544z"/>
  </g>
 </g>
</svg>
