<?xml version="1.0" encoding="UTF-8"?>
<!DOCTYPE svg PUBLIC "-//W3C//DTD SVG 1.1//EN" "http://www.w3.org/Graphics/SVG/1.1/DTD/svg11.dtd">
<!-- Creator: CorelDRAW X8 -->
<svg xmlns="http://www.w3.org/2000/svg" xml:space="preserve" width="100%" height="100%" version="1.1" style="shape-rendering:geometricPrecision; text-rendering:geometricPrecision; image-rendering:optimizeQuality; fill-rule:evenodd; clip-rule:evenodd"
viewBox="0 0 5292 4396"
 xmlns:xlink="http://www.w3.org/1999/xlink">
 <defs>
  <style type="text/css">
   <![CDATA[
    .fil1 {fill:#006DB7}
    .fil2 {fill:#016CB8}
    .fil0 {fill:#EC1C24}
   ]]>
  </style>
 </defs>
 <g id="Слой_x0020_1">
  <metadata id="CorelCorpID_0Corel-Layer"/>
  <path class="fil0" d="M1044 3258l-16 138c-16,146 -37,320 -36,469 93,19 205,69 306,76 6,-107 32,-589 59,-660l16 -116c9,-130 87,-470 121,-608 139,-559 350,-1071 638,-1544 166,-274 437,-609 705,-752 186,-100 653,-184 892,-197 121,-6 244,7 225,141 116,1 202,13 311,21 -21,-68 -30,-91 -84,-125 -143,-89 -361,-102 -529,-101 -230,2 -529,46 -738,100 -386,100 -496,190 -731,417 -54,52 -190,226 -237,292 -417,583 -701,1360 -842,2091l-60 358z"/>
  <path class="fil0" d="M3354 1260l-320 38c-55,15 -158,22 -219,30 -217,29 -461,75 -661,99l0 17c110,16 196,22 309,9l561 -85c48,-16 256,-39 318,-43 350,-30 1031,-137 1368,-35 71,22 156,63 194,103 205,213 -67,634 -198,844 -77,122 -152,245 -226,368 -128,212 -326,575 -371,823 23,49 198,309 241,369 15,22 22,38 41,51 1,-58 -7,-113 -4,-174 29,-627 560,-1228 822,-1766 243,-500 -84,-628 -540,-673 -352,-35 -644,-26 -993,-2 -101,6 -224,27 -322,27z"/>
  <path class="fil1" d="M3024 1368c-3,322 51,550 151,820 88,236 193,464 304,672 114,213 233,422 359,616 67,101 128,195 195,293 65,95 54,95 267,101 50,1 96,7 91,-22 -19,-13 -26,-29 -41,-51 -43,-60 -218,-320 -241,-369 -21,-22 -52,-82 -70,-111l-198 -343c-88,-157 -165,-318 -241,-485 -143,-316 -305,-760 -258,-1164 -62,4 -270,27 -318,43z"/>
  <path class="fil0" d="M360 3704c-19,-40 60,-193 86,-224l109 -203c35,-65 69,-141 100,-210 138,-316 226,-633 257,-985 10,-117 16,-485 -18,-584 -41,-26 -246,-33 -299,-21 -4,6 -4,3 -5,16 -1,8 -1,13 0,21 45,437 14,799 -127,1226 -86,263 -201,498 -336,733 -27,46 -123,192 -127,238 39,16 132,27 180,32 90,10 127,13 180,-39z"/>
  <path class="fil1" d="M2992 2748c61,61 115,220 126,334 14,136 -15,284 -60,396 -89,221 -247,393 -420,502 -342,215 -729,247 -1141,167 -116,-23 -342,-97 -360,-99 19,33 121,108 167,137 214,135 429,192 695,208 378,22 711,-80 941,-259 354,-275 579,-803 242,-1239 -55,-72 -226,-250 -309,-292 32,32 96,97 119,145z"/>
  <path class="fil1" d="M2053 2426c74,-29 236,-1 318,-10 14,-72 35,-142 50,-217 15,-75 27,-155 35,-232 19,-176 17,-336 7,-514 -113,13 -199,7 -309,-9 13,178 10,350 -11,526 -20,168 -55,300 -90,456z"/>
  <path class="fil1" d="M4265 226c-109,-8 -195,-20 -311,-21 -127,1 -320,11 -431,47 -80,26 -150,97 -204,152 -19,18 -45,35 -55,67 71,-20 54,-25 152,-40 174,-28 381,-30 552,-11 107,12 224,36 298,89 148,103 23,229 17,263 37,-11 126,-90 157,-121 95,-98 208,-248 39,-355 -31,-19 -61,-32 -99,-44 -38,-12 -81,-15 -115,-26z"/>
  <path class="fil1" d="M3034 1298l320 -38c76,-249 184,-378 421,-459 32,-11 236,-56 238,-57 -68,-36 -272,-28 -356,-14 -303,51 -577,215 -623,568z"/>
  <path class="fil0" d="M2053 2426l-23 40c33,44 121,120 166,154 32,25 90,8 135,5 190,-13 375,2 550,71 40,16 78,40 111,52 -23,-48 -87,-113 -119,-145 -51,-44 -148,-95 -222,-122 -44,-16 -86,-28 -134,-39 -43,-10 -110,-11 -146,-26 -82,9 -244,-19 -318,10z"/>
  <path class="fil1" d="M446 3480c-26,31 -105,184 -86,224 28,-12 233,-124 322,-164 61,-28 295,-134 346,-144l16 -138c-78,16 -359,126 -447,161 -49,20 -100,45 -151,61z"/>
  <path class="fil2" d="M1373 3165l-16 116c71,-38 418,-112 514,-127 97,-16 190,-28 289,-33 56,-3 289,9 314,-6 -22,-20 -95,-21 -124,-23 -245,-16 -473,-9 -715,26 -92,13 -173,34 -262,47z"/>
 </g>
</svg>
