<?xml version="1.0" encoding="UTF-8"?>
<!DOCTYPE svg PUBLIC "-//W3C//DTD SVG 1.1//EN" "http://www.w3.org/Graphics/SVG/1.1/DTD/svg11.dtd">
<!-- Creator: CorelDRAW X8 -->
<svg xmlns="http://www.w3.org/2000/svg" xml:space="preserve" width="100%" height="100%" version="1.1" style="shape-rendering:geometricPrecision; text-rendering:geometricPrecision; image-rendering:optimizeQuality; fill-rule:evenodd; clip-rule:evenodd"
viewBox="0 0 24051 17209"
 xmlns:xlink="http://www.w3.org/1999/xlink">
 <defs>
  <style type="text/css">
   <![CDATA[
    .str0 {stroke:#FFED00;stroke-width:79.37;stroke-opacity:0.701961}
    .fil0 {fill:none}
    .fil1 {fill:#FFED00;fill-opacity:0.701961}
   ]]>
  </style>
 </defs>
 <g id="Слой_x0020_1">
  <metadata id="CorelCorpID_0Corel-Layer"/>
  <g id="_1245922544">
   <path class="fil0 str0" d="M22232 40c328,0 595,266 595,595 0,328 -267,595 -595,595 -329,0 -595,-267 -595,-595 0,-329 266,-595 595,-595"/>
   <path class="fil1" d="M22232 172c255,0 462,207 462,463 0,255 -207,462 -462,462 -256,0 -463,-207 -463,-462 0,-256 207,-463 463,-463z"/>
  </g>
  <g id="_1245917264">
   <path class="fil0 str0" d="M8996 13599c329,0 595,267 595,595 0,329 -266,595 -595,595 -329,0 -595,-266 -595,-595 0,-328 266,-595 595,-595"/>
   <path class="fil1" d="M8996 13731c256,0 463,208 463,463 0,256 -207,463 -463,463 -256,0 -463,-207 -463,-463 0,-255 207,-463 463,-463z"/>
  </g>
  <g id="_1245915408">
   <path class="fil0 str0" d="M11636 10145c328,0 595,266 595,595 0,329 -267,595 -595,595 -329,0 -595,-266 -595,-595 0,-329 266,-595 595,-595"/>
   <path class="fil1" d="M11636 10277c255,0 462,207 462,463 0,256 -207,463 -462,463 -256,0 -463,-207 -463,-463 0,-256 207,-463 463,-463z"/>
  </g>
  <g id="_1245916496">
   <path class="fil0 str0" d="M635 6226c328,0 595,266 595,595 0,328 -267,595 -595,595 -329,0 -595,-267 -595,-595 0,-329 266,-595 595,-595"/>
   <path class="fil1" d="M635 6358c255,0 462,207 462,463 0,255 -207,463 -462,463 -256,0 -463,-208 -463,-463 0,-256 207,-463 463,-463z"/>
  </g>
  <g id="_1245911696">
   <path class="fil0 str0" d="M17658 11219c329,0 595,266 595,595 0,329 -266,595 -595,595 -328,0 -595,-266 -595,-595 0,-329 267,-595 595,-595"/>
   <path class="fil1" d="M17658 11351c256,0 463,207 463,463 0,256 -207,463 -463,463 -255,0 -463,-207 -463,-463 0,-256 208,-463 463,-463z"/>
  </g>
  <g id="_1245912816">
   <path class="fil0 str0" d="M21637 10740c328,0 595,266 595,595 0,329 -267,595 -595,595 -329,0 -595,-266 -595,-595 0,-329 266,-595 595,-595"/>
   <path class="fil1" d="M21637 10872c255,0 462,207 462,463 0,256 -207,463 -462,463 -256,0 -463,-207 -463,-463 0,-256 207,-463 463,-463z"/>
  </g>
  <g id="_1245913104">
   <path class="fil0 str0" d="M16993 14789c328,0 595,267 595,595 0,329 -267,595 -595,595 -329,0 -595,-266 -595,-595 0,-328 266,-595 595,-595"/>
   <path class="fil1" d="M16993 14921c255,0 462,208 462,463 0,256 -207,463 -462,463 -256,0 -463,-207 -463,-463 0,-255 207,-463 463,-463z"/>
  </g>
  <g id="_1245895952">
   <path class="fil0 str0" d="M23416 15979c329,0 595,267 595,595 0,329 -266,595 -595,595 -329,0 -595,-266 -595,-595 0,-328 266,-595 595,-595"/>
   <path class="fil1" d="M23416 16111c256,0 463,208 463,463 0,256 -207,463 -463,463 -256,0 -463,-207 -463,-463 0,-255 207,-463 463,-463z"/>
  </g>
 </g>
</svg>
